<?xml version="1.0" encoding="utf-8"?><svg xmlns="http://www.w3.org/2000/svg" xmlns:xlink="http://www.w3.org/1999/xlink"><symbol viewBox="0 0 16 16" class="bi bi-emoji-angry" fill="currentColor" id="emoji-angry" xmlns="http://www.w3.org/2000/svg"><path fill-rule="evenodd" d="M8 15A7 7 0 108 1a7 7 0 000 14zm0 1A8 8 0 108 0a8 8 0 000 16z"/><path fill-rule="evenodd" d="M4.285 12.433a.5.5 0 00.683-.183A3.498 3.498 0 018 10.5c1.295 0 2.426.703 3.032 1.75a.5.5 0 00.866-.5A4.498 4.498 0 008 9.5a4.5 4.5 0 00-3.898 2.25.5.5 0 00.183.683z"/><path d="M7 6.5C7 7.328 6.552 8 6 8s-1-.672-1-1.5S5.448 5 6 5s1 .672 1 1.5zm4 0c0 .828-.448 1.5-1 1.5s-1-.672-1-1.5S9.448 5 10 5s1 .672 1 1.5z"/><path fill-rule="evenodd" d="M4.053 4.276a.5.5 0 01.67-.223l2 1a.5.5 0 11-.447.894l-2-1a.5.5 0 01-.223-.67zm7.894 0a.5.5 0 00-.67-.223l-2 1a.5.5 0 10.447.894l2-1a.5.5 0 00.223-.67z"/></symbol><symbol viewBox="0 0 16 16" class="bi bi-emoji-dizzy" fill="currentColor" id="emoji-dizzy" xmlns="http://www.w3.org/2000/svg"><path fill-rule="evenodd" d="M8 15A7 7 0 108 1a7 7 0 000 14zm0 1A8 8 0 108 0a8 8 0 000 16z"/><path fill-rule="evenodd" d="M9.146 5.146a.5.5 0 01.708 0l.646.647.646-.647a.5.5 0 01.708.708l-.647.646.647.646a.5.5 0 01-.708.708l-.646-.647-.646.647a.5.5 0 11-.708-.708l.647-.646-.647-.646a.5.5 0 010-.708zm-5 0a.5.5 0 01.708 0l.646.647.646-.647a.5.5 0 11.708.708l-.647.646.647.646a.5.5 0 11-.708.708L5.5 7.207l-.646.647a.5.5 0 11-.708-.708l.647-.646-.647-.646a.5.5 0 010-.708z"/><path d="M10 11a2 2 0 11-4 0 2 2 0 014 0z"/></symbol><symbol viewBox="0 0 16 16" class="bi bi-emoji-neutral" fill="currentColor" id="emoji-neutral" xmlns="http://www.w3.org/2000/svg"><path fill-rule="evenodd" d="M8 15A7 7 0 108 1a7 7 0 000 14zm0 1A8 8 0 108 0a8 8 0 000 16z"/><path fill-rule="evenodd" d="M4 10.5a.5.5 0 01.5-.5h7a.5.5 0 010 1h-7a.5.5 0 01-.5-.5z"/><path d="M7 6.5C7 7.328 6.552 8 6 8s-1-.672-1-1.5S5.448 5 6 5s1 .672 1 1.5zm4 0c0 .828-.448 1.5-1 1.5s-1-.672-1-1.5S9.448 5 10 5s1 .672 1 1.5z"/></symbol><symbol viewBox="0 0 16 16" class="bi bi-emoji-smile" fill="currentColor" id="emoji-smile" xmlns="http://www.w3.org/2000/svg"><path fill-rule="evenodd" d="M8 15A7 7 0 108 1a7 7 0 000 14zm0 1A8 8 0 108 0a8 8 0 000 16z"/><path fill-rule="evenodd" d="M4.285 9.567a.5.5 0 01.683.183A3.498 3.498 0 008 11.5a3.498 3.498 0 003.032-1.75.5.5 0 11.866.5A4.498 4.498 0 018 12.5a4.498 4.498 0 01-3.898-2.25.5.5 0 01.183-.683z"/><path d="M7 6.5C7 7.328 6.552 8 6 8s-1-.672-1-1.5S5.448 5 6 5s1 .672 1 1.5zm4 0c0 .828-.448 1.5-1 1.5s-1-.672-1-1.5S9.448 5 10 5s1 .672 1 1.5z"/></symbol><symbol viewBox="0 0 16 16" class="bi bi-emoji-smile-upside-down" fill="currentColor" id="emoji-smile-upside-down" xmlns="http://www.w3.org/2000/svg"><path fill-rule="evenodd" d="M8 1a7 7 0 110 14A7 7 0 018 1zm0-1a8 8 0 110 16A8 8 0 018 0z"/><path fill-rule="evenodd" d="M4.285 6.433a.5.5 0 00.683-.183A3.498 3.498 0 018 4.5c1.295 0 2.426.703 3.032 1.75a.5.5 0 00.866-.5A4.498 4.498 0 008 3.5a4.5 4.5 0 00-3.898 2.25.5.5 0 00.183.683z"/><path d="M7 9.5C7 8.672 6.552 8 6 8s-1 .672-1 1.5.448 1.5 1 1.5 1-.672 1-1.5zm4 0c0-.828-.448-1.5-1-1.5s-1 .672-1 1.5.448 1.5 1 1.5 1-.672 1-1.5z"/></symbol></svg>